<svg width="100" height="100" viewBox="0 0 100 100" fill="none" xmlns="http://www.w3.org/2000/svg">
<path d="M21.3383 54.3111C18.0485 52.3784 18.0485 47.6216 21.3383 45.6889L49.2173 29.3105C52.5505 27.3524 56.75 29.7558 56.75 33.6216L56.75 66.3784C56.75 70.2442 52.5505 72.6476 49.2173 70.6894L21.3383 54.3111Z" fill="#41576B"/>
<path d="M86 55C86 57.7614 83.7614 60 81 60L35 60C32.2386 60 30 57.7614 30 55V45C30 42.2386 32.2386 40 35 40L81 40C83.7614 40 86 42.2386 86 45V55Z" fill="#41576B"/>
</svg>
