<svg width="100" height="100" viewBox="0 0 100 100" fill="none" xmlns="http://www.w3.org/2000/svg">
<path fill-rule="evenodd" clip-rule="evenodd" d="M8 29C8 29 8 29 8 29V73.0741C8 81.3583 14.7157 88.0741 23 88.0741H52.3738C60.658 88.0741 67.3738 81.3583 67.3738 73.0741C67.3738 75.8355 60.658 78.0741 52.3738 78.0741H23C20.2386 78.0741 18 75.8355 18 73.0741V29C18 26.2386 20.2386 24 23 24H52.3738C60.658 24 67.3738 26.2386 67.3738 29C67.3738 20.7157 60.658 14 52.3738 14H23C14.7157 14 8.00001 20.7157 8 29Z" fill="#41576B"/>
<path d="M38 44L74 47.4626V51.5862L38 56V44Z" fill="#41576B"/>
<path d="M83 50L59 65L67.4 50L59 35L83 50Z" fill="#41576B"/>
</svg>
